<mxfile host="app.diagrams.net" modified="2023-10-20T14:08:54.084Z" agent="Mozilla/5.0 (X11; Linux x86_64; rv:103.0) Gecko/20100101 Firefox/103.0" etag="jXeBmki6Tmh0kClgmUVj" version="22.0.6" type="github">
  <diagram name="Página-1" id="XBy2-2OZxQjgucZR3S9d">
    <mxGraphModel dx="1434" dy="1887" grid="1" gridSize="10" guides="1" tooltips="1" connect="1" arrows="1" fold="1" page="1" pageScale="1" pageWidth="827" pageHeight="1169" math="0" shadow="0">
      <root>
        <mxCell id="0" />
        <mxCell id="1" parent="0" />
        <mxCell id="DscSACYJY0Y8CuKiJLWt-1" value="vendedor" style="swimlane;childLayout=stackLayout;horizontal=1;startSize=50;horizontalStack=0;rounded=1;fontSize=14;fontStyle=0;strokeWidth=2;resizeParent=0;resizeLast=1;shadow=0;dashed=0;align=center;arcSize=4;whiteSpace=wrap;html=1;" parent="1" vertex="1">
          <mxGeometry x="460" y="-40" width="140" height="180" as="geometry" />
        </mxCell>
        <mxCell id="DscSACYJY0Y8CuKiJLWt-2" value="&lt;div&gt;código&lt;/div&gt;&lt;div&gt;nome&lt;/div&gt;&lt;div&gt;endereço&lt;/div&gt;&lt;div&gt;comissão&lt;br&gt;&lt;/div&gt;" style="align=left;strokeColor=none;fillColor=none;spacingLeft=4;fontSize=12;verticalAlign=top;resizable=0;rotatable=0;part=1;html=1;" parent="DscSACYJY0Y8CuKiJLWt-1" vertex="1">
          <mxGeometry y="50" width="140" height="130" as="geometry" />
        </mxCell>
        <mxCell id="DscSACYJY0Y8CuKiJLWt-7" value="Produtos" style="swimlane;childLayout=stackLayout;horizontal=1;startSize=50;horizontalStack=0;rounded=1;fontSize=14;fontStyle=0;strokeWidth=2;resizeParent=0;resizeLast=1;shadow=0;dashed=0;align=center;arcSize=4;whiteSpace=wrap;html=1;" parent="1" vertex="1">
          <mxGeometry x="650" y="-120" width="130" height="180" as="geometry" />
        </mxCell>
        <mxCell id="DscSACYJY0Y8CuKiJLWt-8" value="&lt;div&gt;código&lt;/div&gt;&lt;div&gt;descrição&lt;/div&gt;&lt;div&gt;preço&lt;/div&gt;&lt;div&gt;estoque &lt;br&gt;&lt;/div&gt;&lt;div&gt;nome&lt;/div&gt;&lt;div&gt;tipo&lt;br&gt;&lt;/div&gt;" style="align=left;strokeColor=none;fillColor=none;spacingLeft=4;fontSize=12;verticalAlign=top;resizable=0;rotatable=0;part=1;html=1;" parent="DscSACYJY0Y8CuKiJLWt-7" vertex="1">
          <mxGeometry y="50" width="130" height="130" as="geometry" />
        </mxCell>
        <mxCell id="DscSACYJY0Y8CuKiJLWt-11" value="armazém" style="swimlane;childLayout=stackLayout;horizontal=1;startSize=50;horizontalStack=0;rounded=1;fontSize=14;fontStyle=0;strokeWidth=2;resizeParent=0;resizeLast=1;shadow=0;dashed=0;align=center;arcSize=4;whiteSpace=wrap;html=1;" parent="1" vertex="1">
          <mxGeometry x="840" y="80" width="140" height="180" as="geometry" />
        </mxCell>
        <mxCell id="DscSACYJY0Y8CuKiJLWt-12" value="código&lt;br&gt;endereço" style="align=left;strokeColor=none;fillColor=none;spacingLeft=4;fontSize=12;verticalAlign=top;resizable=0;rotatable=0;part=1;html=1;" parent="DscSACYJY0Y8CuKiJLWt-11" vertex="1">
          <mxGeometry y="50" width="140" height="130" as="geometry" />
        </mxCell>
        <mxCell id="DscSACYJY0Y8CuKiJLWt-16" value="Cliente" style="swimlane;childLayout=stackLayout;horizontal=1;startSize=50;horizontalStack=0;rounded=1;fontSize=14;fontStyle=0;strokeWidth=2;resizeParent=0;resizeLast=1;shadow=0;dashed=0;align=center;arcSize=4;whiteSpace=wrap;html=1;" parent="1" vertex="1">
          <mxGeometry x="260" y="-140" width="140" height="180" as="geometry">
            <mxRectangle x="260" y="-140" width="80" height="50" as="alternateBounds" />
          </mxGeometry>
        </mxCell>
        <mxCell id="DscSACYJY0Y8CuKiJLWt-17" value="&lt;div&gt;nome&lt;/div&gt;&lt;div&gt;código&lt;/div&gt;&lt;div&gt;endereço&lt;/div&gt;&lt;div&gt;limite de crédito&lt;/div&gt;&lt;div&gt;RG&lt;/div&gt;&lt;div&gt;farturamento&lt;/div&gt;&lt;div&gt;código_vendedor&lt;/div&gt;&lt;div&gt;telefone&lt;br&gt;&lt;/div&gt;" style="align=left;strokeColor=none;fillColor=none;spacingLeft=4;fontSize=12;verticalAlign=top;resizable=0;rotatable=0;part=1;html=1;" parent="DscSACYJY0Y8CuKiJLWt-16" vertex="1">
          <mxGeometry y="50" width="140" height="130" as="geometry" />
        </mxCell>
        <mxCell id="xI69Hsn8quczLWKtF9pm-6" value="" style="edgeStyle=entityRelationEdgeStyle;fontSize=12;html=1;endArrow=ERoneToMany;startArrow=ERmandOne;rounded=0;entryX=0;entryY=0.75;entryDx=0;entryDy=0;exitX=1;exitY=0.5;exitDx=0;exitDy=0;" edge="1" parent="1" source="DscSACYJY0Y8CuKiJLWt-16" target="DscSACYJY0Y8CuKiJLWt-1">
          <mxGeometry width="100" height="100" relative="1" as="geometry">
            <mxPoint x="360" y="140" as="sourcePoint" />
            <mxPoint x="460" y="40" as="targetPoint" />
          </mxGeometry>
        </mxCell>
        <mxCell id="xI69Hsn8quczLWKtF9pm-7" value="" style="edgeStyle=entityRelationEdgeStyle;fontSize=12;html=1;endArrow=ERoneToMany;startArrow=ERmandOne;rounded=0;exitX=1;exitY=0.75;exitDx=0;exitDy=0;entryX=0.015;entryY=0.156;entryDx=0;entryDy=0;entryPerimeter=0;" edge="1" parent="1" source="DscSACYJY0Y8CuKiJLWt-2" target="DscSACYJY0Y8CuKiJLWt-7">
          <mxGeometry width="100" height="100" relative="1" as="geometry">
            <mxPoint x="590" y="80" as="sourcePoint" />
            <mxPoint x="650" y="-26" as="targetPoint" />
          </mxGeometry>
        </mxCell>
        <mxCell id="xI69Hsn8quczLWKtF9pm-8" value="" style="edgeStyle=entityRelationEdgeStyle;fontSize=12;html=1;endArrow=ERoneToMany;startArrow=ERmandOne;rounded=0;entryX=0;entryY=0.069;entryDx=0;entryDy=0;entryPerimeter=0;exitX=1.008;exitY=0.183;exitDx=0;exitDy=0;exitPerimeter=0;" edge="1" parent="1" source="DscSACYJY0Y8CuKiJLWt-7" target="DscSACYJY0Y8CuKiJLWt-12">
          <mxGeometry width="100" height="100" relative="1" as="geometry">
            <mxPoint x="780" y="-30" as="sourcePoint" />
            <mxPoint x="880" y="-130" as="targetPoint" />
          </mxGeometry>
        </mxCell>
      </root>
    </mxGraphModel>
  </diagram>
</mxfile>
